# xmcd CD database file
#
# Track frame offsets:
#	150
#	16627
#	30917
#	60245
#	71412
#	91190
#	113082
#	151810
#	194882
#	215750
#	234552
#
# Disc length: 3587 seconds
#
# Revision: 0
# Processed by: cddbd v1.5.2PL0 Copyright (c) Steve Scherf et al.
# Submitted via: CDex 1.70beta2
#
DISCID=830e010b
DTITLE=Harry Strutter's Hot Rhythm Orchestra - Memories Of Bing Crosby
DYEAR=1994
DGENRE=Jazz
TTITLE0=Deep Down South
TTITLE1=Please Don't Talk About Me
TTITLE2=Angry Medkey
TTITLE3=Dear Hearts And Gentle People
TTITLE4=De Silva, Brown and Henderson Medley
TTITLE5=100 Years From Today
TTITLE6=Baby Medley
TTITLE7=Crosby Medley
TTITLE8=Jazz Me Blues
TTITLE9=Blue Of The Night
TTITLE10=Dixie Medley
EXTD=YEAR: 1994
EXTT0=
EXTT1=
EXTT2=
EXTT3=
EXTT4=
EXTT5=
EXTT6=
EXTT7=
EXTT8=
EXTT9=
EXTT10=
PLAYORDER=
